<svg width="36" height="36" viewBox="0 0 36 36" fill="none" xmlns="http://www.w3.org/2000/svg">
<path d="M10.7977 10.097L7.70668 13.153C8.44521 15.2295 9.57835 17.1436 11.0437 18.79C12.8409 21.0198 14.8718 23.0507 17.1017 24.848C18.7567 26.3187 20.6836 27.4513 22.7737 28.182L25.8297 25.126C26.0923 24.9275 26.3935 24.7859 26.7139 24.7104C27.0343 24.6348 27.367 24.6268 27.6907 24.687C28.5969 24.7483 29.4961 24.8892 30.3777 25.108C31.1448 25.2835 31.892 25.5368 32.6077 25.864C33.7621 26.3664 34.7578 27.174 35.4877 28.2C36.0963 29.1253 36.1297 29.8453 35.5877 30.36L31.8307 34.118C30.7266 35.1909 29.2606 35.8113 27.7217 35.857C25.8133 35.962 23.9031 35.6874 22.1017 35.049C19.846 34.2619 17.6984 33.1938 15.7097 31.87C13.3878 30.3581 11.2331 28.6039 9.28168 26.637C7.30904 24.68 5.54923 22.5196 4.03168 20.192C2.70263 18.1979 1.63018 16.0442 0.839676 13.782C0.201105 11.9875 -0.0735739 10.0838 0.0316762 8.18195C0.0812831 6.64923 0.701458 5.19026 1.77068 4.09095L5.52868 0.332953C6.02068 -0.159047 6.66468 -0.10638 7.46068 0.490953C8.45206 1.29999 9.31636 2.25328 10.0247 3.31895C10.6084 4.36932 10.9677 5.52949 11.0797 6.72595C11.3377 8.36529 11.244 9.48929 10.7987 10.098L10.7977 10.097Z" fill="#9B68C7"/>
</svg>
