<svg width="37" height="28" viewBox="0 0 37 28" fill="none" xmlns="http://www.w3.org/2000/svg">
<path d="M33.862 8.794V24.178L25.554 15.87L23.963 17.462L32.124 25.634H4.131L12.031 17.462L10.406 15.893L2.256 24.325V4.775L16.286 18.738C16.7089 19.1586 17.2811 19.3946 17.8775 19.3946C18.4739 19.3946 19.0461 19.1586 19.469 18.738L29.436 8.828C28.6408 8.62047 27.8804 8.29736 27.179 7.869L17.856 17.136L3.736 3.059H23.489C23.2708 2.32596 23.153 1.5667 23.139 0.802002H2.257C1.65841 0.802002 1.08433 1.03979 0.66106 1.46306C0.237791 1.88633 2.21553e-07 2.46041 2.21553e-07 3.059V25.634C-0.000131138 25.9305 0.0581511 26.2241 0.171517 26.498C0.284883 26.772 0.451112 27.0209 0.660707 27.2306C0.870301 27.4403 1.11916 27.6066 1.39305 27.7201C1.66695 27.8336 1.96052 27.892 2.257 27.892H33.857C34.4556 27.892 35.0297 27.6542 35.4529 27.2309C35.8762 26.8077 36.114 26.2336 36.114 25.635V7.802C35.4145 8.24211 34.654 8.5767 33.857 8.795L33.862 8.794Z" fill="#9B68C7"/>
</svg>
