<svg width="36" height="32" viewBox="0 0 36 32" fill="none" xmlns="http://www.w3.org/2000/svg">
<path d="M34.8406 15.7349H33.7166V24.7259C33.7166 25.9194 33.2425 27.064 32.3986 27.9079C31.5547 28.7518 30.4101 29.2259 29.2166 29.2259V30.3499C29.2122 30.6467 29.0924 30.93 28.8825 31.1399C28.6727 31.3497 28.3893 31.4696 28.0926 31.4739H25.8486C25.5519 31.4696 25.2685 31.3497 25.0587 31.1399C24.8488 30.93 24.729 30.6467 24.7246 30.3499V29.2219H8.9896V30.3459C8.98522 30.6427 8.86539 30.926 8.65554 31.1359C8.44569 31.3457 8.16234 31.4656 7.8656 31.4699H5.6176C5.32087 31.4656 5.03752 31.3457 4.82767 31.1359C4.61782 30.926 4.49799 30.6427 4.4936 30.3459V29.2219C3.90151 29.2305 3.31396 29.1175 2.7672 28.8902C2.22044 28.6628 1.72607 28.3258 1.3146 27.8999C0.889982 27.489 0.554193 26.9952 0.328007 26.4493C0.101822 25.9034 -0.00994996 25.3168 -0.000395511 24.7259V4.49995C-0.0100965 3.90755 0.101768 3.31945 0.328289 2.77198C0.554809 2.22451 0.891174 1.72931 1.3166 1.31695C1.7281 0.891752 2.22244 0.555495 2.76906 0.328967C3.31569 0.102439 3.90298 -0.00954315 4.4946 -5.39761e-05H29.2206C29.8123 -0.00920601 30.3997 0.102926 30.9464 0.32943C31.4931 0.555934 31.9877 0.892011 32.3996 1.31695C32.8254 1.72905 33.162 2.22421 33.3885 2.77174C33.615 3.31927 33.7267 3.90749 33.7166 4.49995V6.74395H34.8406C35.1373 6.74834 35.4207 6.86817 35.6305 7.07801C35.8404 7.28786 35.9602 7.57121 35.9646 7.86795V14.6109C35.9602 14.9077 35.8404 15.191 35.6305 15.4009C35.4207 15.6107 35.1373 15.7306 34.8406 15.7349ZM11.2406 26.9739C12.129 26.99 13.0113 26.8237 13.8329 26.4854C14.6545 26.1471 15.3981 25.6439 16.0176 25.0069C16.6537 24.387 17.1559 23.6433 17.4934 22.8217C17.8308 22 17.9963 21.118 17.9796 20.2299C17.9957 19.3415 17.8294 18.4593 17.4911 17.6376C17.1528 16.816 16.6496 16.0725 16.0126 15.4529C15.3931 14.816 14.6495 14.3128 13.8279 13.9745C13.0063 13.6362 12.124 13.4699 11.2356 13.4859C10.3472 13.4699 9.46492 13.6362 8.64329 13.9745C7.82167 14.3128 7.07813 14.816 6.4586 15.4529C5.82306 16.0698 5.32063 16.8103 4.98233 17.6288C4.64402 18.4473 4.47702 19.3264 4.4916 20.2119C4.47803 21.1 4.64542 21.9816 4.9836 22.8028C5.32177 23.6241 5.82363 24.3679 6.4586 24.9889C7.07561 25.6304 7.8183 26.1376 8.64024 26.479C9.46219 26.8204 10.3457 26.9885 11.2356 26.9729L11.2406 26.9739ZM29.2206 5.61995C29.2152 5.32391 29.0949 5.04157 28.8852 4.83258C28.6754 4.62358 28.3927 4.50431 28.0966 4.49995H5.6186C5.32255 4.50431 5.03978 4.62358 4.83004 4.83258C4.62031 5.04157 4.50002 5.32391 4.4946 5.61995V10.1199C4.50002 10.416 4.62031 10.6983 4.83004 10.9073C5.03978 11.1163 5.32255 11.2356 5.6186 11.2399H8.9906L12.3626 6.73995L15.7346 11.2399H28.0976C28.3943 11.2356 28.6777 11.1157 28.8875 10.9059C29.0974 10.696 29.2172 10.4127 29.2216 10.1159V5.61995H29.2206ZM11.2386 17.9829C11.8353 17.9806 12.4086 18.2153 12.8322 18.6356C13.2559 19.0559 13.4952 19.6272 13.4976 20.2239C13.5 20.8207 13.2652 21.3939 12.845 21.8176C12.4247 22.2412 11.8533 22.4806 11.2566 22.4829C10.9599 22.4875 10.6654 22.4323 10.3905 22.3206C10.1156 22.209 9.86604 22.0431 9.6566 21.8329C9.43992 21.6276 9.26864 21.3791 9.15376 21.1035C9.03889 20.828 8.98297 20.5314 8.9896 20.2329C8.98584 19.9367 9.04142 19.6427 9.15306 19.3682C9.2647 19.0938 9.43015 18.8445 9.63965 18.635C9.84915 18.4255 10.0985 18.26 10.3729 18.1484C10.6473 18.0368 10.9414 17.9812 11.2376 17.9849L11.2386 17.9829Z" fill="#9B68C7"/>
</svg>
