<svg width="25" height="25" viewBox="0 0 25 25" fill="none" xmlns="http://www.w3.org/2000/svg">
<path d="M22.4303 6.38075C22.4461 6.65024 22.4461 6.91978 22.4461 7.18927C22.4461 15.409 17.2907 24.88 7.86805 24.88C4.96511 24.88 2.26842 23.8597 0 22.0888C0.412453 22.1465 0.808988 22.1658 1.23731 22.1658C3.63258 22.1658 5.83757 21.1841 7.59837 19.5093C5.34582 19.4515 3.45812 17.6613 2.80773 15.1973C3.12501 15.255 3.44225 15.2935 3.77541 15.2935C4.23542 15.2935 4.69548 15.2165 5.12375 15.0818C2.77604 14.5042 1.01519 12.0018 1.01519 8.97951V8.90254C1.69727 9.36454 2.49049 9.65329 3.33117 9.69174C1.95108 8.57522 1.04693 6.66949 1.04693 4.51348C1.04693 3.3585 1.30069 2.29975 1.74488 1.37574C4.26711 5.14874 8.05838 7.6127 12.3096 7.88225C12.2303 7.42024 12.1827 6.93904 12.1827 6.45778C12.1827 3.03124 14.467 0.240021 17.3065 0.240021C18.7817 0.240021 20.1142 0.990769 21.0501 2.20352C22.2081 1.93403 23.3185 1.41426 24.302 0.702024C23.9213 2.14581 23.1123 3.35856 22.0495 4.1285C23.0806 3.99382 24.08 3.64724 25 3.16604C24.3021 4.39799 23.4296 5.4952 22.4303 6.38075Z" fill="#EBCAF3"/>
<path d="M22.4303 6.38075C22.4461 6.65024 22.4461 6.91978 22.4461 7.18927C22.4461 15.409 17.2907 24.88 7.86805 24.88C4.96511 24.88 2.26842 23.8597 0 22.0888C0.412453 22.1465 0.808988 22.1658 1.23731 22.1658C3.63258 22.1658 5.83757 21.1841 7.59837 19.5093C5.34582 19.4515 3.45812 17.6613 2.80773 15.1973C3.12501 15.255 3.44225 15.2935 3.77541 15.2935C4.23542 15.2935 4.69548 15.2165 5.12375 15.0818C2.77604 14.5042 1.01519 12.0018 1.01519 8.97951V8.90254C1.69727 9.36454 2.49049 9.65329 3.33117 9.69174C1.95108 8.57522 1.04693 6.66949 1.04693 4.51348C1.04693 3.3585 1.30069 2.29975 1.74488 1.37574C4.26711 5.14874 8.05838 7.6127 12.3096 7.88225C12.2303 7.42024 12.1827 6.93904 12.1827 6.45778C12.1827 3.03124 14.467 0.240021 17.3065 0.240021C18.7817 0.240021 20.1142 0.990769 21.0501 2.20352C22.2081 1.93403 23.3185 1.41426 24.302 0.702024C23.9213 2.14581 23.1123 3.35856 22.0495 4.1285C23.0806 3.99382 24.08 3.64724 25 3.16604C24.3021 4.39799 23.4296 5.4952 22.4303 6.38075Z" stroke="black"/>
</svg>
