<svg width="36" height="29" viewBox="0 0 36 29" fill="none" xmlns="http://www.w3.org/2000/svg">
<path d="M26.5629 8.517C26.5649 8.41955 26.5475 8.32267 26.5118 8.23198C26.4761 8.14128 26.4228 8.05857 26.3549 7.98863C26.287 7.91869 26.2059 7.86291 26.1163 7.82453C26.0267 7.78614 25.9304 7.76591 25.8329 7.76501H21.7269V5.165C21.725 3.79947 21.1827 2.49019 20.2185 1.52331C19.2542 0.556421 17.9464 0.0105535 16.5809 0.00500488H2.45789V3.882H16.4219C16.6241 3.91366 16.8103 4.01068 16.952 4.15824C17.0938 4.30579 17.1833 4.49574 17.2069 4.69901V7.76501H0.749889C0.551497 7.76633 0.361712 7.8462 0.222082 7.98714C0.0824524 8.12809 0.00435543 8.31861 0.00488889 8.517V27.717C0.00409021 27.9156 0.0820698 28.1064 0.221728 28.2475C0.361386 28.3887 0.551323 28.4687 0.749889 28.47H25.8339C25.9314 28.4691 26.0277 28.4489 26.1173 28.4105C26.2069 28.3721 26.288 28.3163 26.3559 28.2464C26.4238 28.1764 26.4771 28.0937 26.5128 28.003C26.5485 27.9123 26.5659 27.8155 26.5639 27.718V22.501L35.5239 25.308V11.041L26.5639 13.848L26.5629 8.517ZM17.9359 21.11H8.57189C7.99525 21.1207 7.42851 20.9593 6.9441 20.6463C6.45969 20.3333 6.07961 19.8829 5.85243 19.3528C5.62525 18.8227 5.56129 18.2369 5.66872 17.6703C5.77616 17.1036 6.05011 16.5819 6.45557 16.1717C6.86102 15.7616 7.37957 15.4816 7.94493 15.3677C8.5103 15.2537 9.0968 15.3109 9.62949 15.532C10.1622 15.753 10.6169 16.1279 10.9354 16.6087C11.254 17.0894 11.422 17.6543 11.4179 18.231C11.4096 19.0058 11.1031 19.7475 10.5619 20.302H15.9499C15.4087 19.7475 15.1021 19.0058 15.0939 18.231C15.1002 17.6693 15.2726 17.122 15.5892 16.658C15.9059 16.194 16.3528 15.8341 16.8736 15.6236C17.3944 15.413 17.9659 15.3612 18.516 15.4747C19.0662 15.5883 19.5705 15.862 19.9654 16.2615C20.3603 16.661 20.6283 17.1684 20.7354 17.7199C20.8426 18.2713 20.7842 18.8421 20.5677 19.3605C20.3511 19.8788 19.9861 20.3215 19.5185 20.6328C19.0509 20.9441 18.5016 21.1102 17.9399 21.11H17.9359Z" fill="#9B68C7"/>
</svg>
