<svg width="293" height="810" viewBox="0 0 293 810" fill="none" xmlns="http://www.w3.org/2000/svg">
<path d="M77.3 713.2C77.3 696.2 84.3 682.5 98.3 672.1C112.3 661.5 132.5 656.2 158.9 656.2C176.3 656.2 191.1 659.2 203.3 665.2C215.5 671.2 224.7 679.3 230.9 689.5C237.1 699.5 240.2 710.7 240.2 723.1C240.2 730.5 238.7 737.7 235.7 744.7C232.7 751.5 228.4 757.5 222.8 762.7L240.8 784L238.7 789.1C233.7 787.7 227.9 787 221.3 787H37.1C27.9 787 21.2 788.7 17 792.1C12.8 795.5 10.7 801.4 10.7 809.8H4.4C4.99999 803.4 5.29998 797.2 5.29998 791.2C5.29998 778.6 3.89998 768.2 1.09998 760H109.4C99.2 755.6 91.3 749.3 85.7 741.1C80.1 732.7 77.3 723.4 77.3 713.2ZM233.3 725.5C233.3 712.1 227.3 702.1 215.3 695.5C203.1 688.7 184.3 685.3 158.9 685.3C134.5 685.3 116.3 688.3 104.3 694.3C92.3 700.3 86.3 709.5 86.3 721.9C86.3 730.3 89.6 738 96.2 745C102.6 752 111.7 757 123.5 760H218.6C223.4 755.4 227.1 750.1 229.7 744.1C232.1 738.1 233.3 731.9 233.3 725.5ZM208.1 558.487C216.3 558.487 222 556.787 225.2 553.387C228.2 549.987 229.7 544.087 229.7 535.687H236C235.2 554.087 234.8 566.187 234.8 571.987C234.8 577.787 235.2 589.887 236 608.287H229.7C229.7 599.887 228.2 593.987 225.2 590.587C222 587.187 216.3 585.487 208.1 585.487H36.8C27.6 585.487 20.9 587.187 16.7 590.587C12.5 593.987 10.4 599.887 10.4 608.287H4.09998C4.69999 602.087 4.99999 595.887 4.99999 589.687C4.99999 577.087 3.59999 566.687 0.799988 558.487H208.1ZM77.3 419.777C77.3 399.377 84.1 382.977 97.7 370.577C111.1 357.977 131.5 351.677 158.9 351.677C186.3 351.677 206.7 357.977 220.1 370.577C233.5 382.977 240.2 399.377 240.2 419.777C240.2 440.177 233.5 456.677 220.1 469.277C206.7 481.677 186.3 487.877 158.9 487.877C131.5 487.877 111.1 481.677 97.7 469.277C84.1 456.677 77.3 440.177 77.3 419.777ZM83.3 419.777C83.3 431.777 89.5 441.277 101.9 448.277C114.1 455.277 133.1 458.777 158.9 458.777C184.7 458.777 203.7 455.277 215.9 448.277C228.1 441.277 234.2 431.777 234.2 419.777C234.2 407.777 228.1 398.277 215.9 391.277C203.7 384.277 184.7 380.777 158.9 380.777C133.1 380.777 114.1 384.277 101.9 391.277C89.5 398.277 83.3 407.777 83.3 419.777ZM108.5 166.321C108.5 169.921 107.3 173.021 104.9 175.621C102.5 178.021 99 179.221 94.4 179.221C90.4 179.221 85.8 178.221 80.6 176.221C82.8 181.421 85.3 185.521 88.1 188.521C90.7 191.521 94 194.221 98 196.621C105 192.021 113.9 189.721 124.7 189.721C140.5 189.721 152.4 194.521 160.4 204.121C168.2 213.721 172.1 226.421 172.1 242.221V242.521C175.9 249.121 179.4 254.121 182.6 257.521C185.8 260.921 189.4 262.621 193.4 262.621C199.8 262.621 203 257.821 203 248.221V210.721C203 197.121 206 185.921 212 177.121C217.8 168.121 226.6 163.621 238.4 163.621C248 163.621 256.9 166.721 265.1 172.921C273.3 179.121 279.9 188.221 284.9 200.221C289.9 212.221 292.4 226.721 292.4 243.721C292.4 261.121 289.7 275.721 284.3 287.521C279.1 299.121 271.3 304.921 260.9 304.921C254.1 304.921 248.2 302.221 243.2 296.821C238.2 291.221 234.3 283.521 231.5 273.721L236.3 271.921C237.7 276.321 240.5 279.821 244.7 282.421C248.9 285.021 253.6 286.321 258.8 286.321C268 286.321 275 282.221 279.8 274.021C284.8 265.621 287.3 254.421 287.3 240.421C287.3 225.021 284.3 211.821 278.3 200.821C272.5 189.821 263.4 184.321 251 184.321C243.8 184.321 238.2 186.921 234.2 192.121C230.2 197.121 228.2 206.121 228.2 219.121V241.321C228.2 253.121 226.7 262.621 223.7 269.821C220.7 276.821 214.7 280.321 205.7 280.321C199.5 280.321 193.6 278.121 188 273.721C182.4 269.121 176.9 261.621 171.5 251.221C170.1 264.421 165.5 275.021 157.7 283.021C149.9 290.821 138.9 294.721 124.7 294.721C108.9 294.721 97.1 289.921 89.3 280.321C81.3 270.721 77.3 258.021 77.3 242.221C77.3 223.421 82.5 209.521 92.9 200.521C87.5 196.721 83.1 191.921 79.7 186.121C76.1 180.321 74.3 174.521 74.3 168.721C74.3 163.521 75.8 159.321 78.8 156.121C81.8 152.921 86.1 151.321 91.7 151.321C97.3 151.321 101.5 152.921 104.3 156.121C107.1 159.121 108.5 162.521 108.5 166.321ZM166.7 242.221C166.7 234.221 163.6 228.221 157.4 224.221C151 220.021 140.1 217.921 124.7 217.921C109.3 217.921 98.5 220.021 92.3 224.221C85.9 228.221 82.7 234.221 82.7 242.221C82.7 250.221 85.9 256.321 92.3 260.521C98.5 264.521 109.3 266.521 124.7 266.521C140.1 266.521 151 264.521 157.4 260.521C163.6 256.321 166.7 250.221 166.7 242.221ZM77.3 58.1898C77.3 50.9898 78.4 44.5898 80.6 38.9898C82.8 33.3898 85.4 28.8898 88.4 25.4898C90 23.2898 90.8 21.4898 90.8 20.0898C90.8 16.4898 86.4 14.2898 77.6 13.4898V6.58984C87.4 7.38984 104.4 7.78984 128.6 7.78984V14.6898C115.4 16.8898 104.5 21.1898 95.9 27.5898C87.3 33.7898 83 43.0898 83 55.4898C83 62.6898 85.1 68.5898 89.3 73.1898C93.3 77.7898 98.9 80.0898 106.1 80.0898C113.1 80.0898 119 77.6898 123.8 72.8898C128.4 68.0898 134 60.3898 140.6 49.7898C141.6 47.9898 143.3 45.2898 145.7 41.6898C151.7 32.4898 157 25.0898 161.6 19.4898C166.2 13.8898 171.5 9.38984 177.5 5.98984C183.5 2.38984 190.4 0.589842 198.2 0.589842C211.4 0.589842 221.7 5.58984 229.1 15.5898C236.5 25.3898 240.2 37.4898 240.2 51.8898C240.2 60.8898 238.8 68.7898 236 75.5898C233.8 79.9898 231.1 84.0898 227.9 87.8898C227.1 88.6898 226.7 89.5898 226.7 90.5898C226.7 91.9898 227.7 93.2898 229.7 94.4898C231.7 95.4898 234.5 96.2898 238.1 96.8898V103.79C226.7 102.99 206.7 102.59 178.1 102.59V95.6898C196.9 93.4898 211 89.4898 220.4 83.6898C229.6 77.8898 234.2 67.9898 234.2 53.9898C234.2 46.9898 231.9 40.7898 227.3 35.3898C222.7 29.9898 215.5 27.2898 205.7 27.2898C197.9 27.2898 191.3 29.9898 185.9 35.3898C180.5 40.5898 174 49.1898 166.4 61.1898C160.2 70.9898 155.1 78.5898 151.1 83.9898C147.1 89.1898 142.2 93.5898 136.4 97.1898C130.6 100.79 123.8 102.59 116 102.59C103.4 102.59 93.8 98.3898 87.2 89.9898C80.6 81.5898 77.3 70.9898 77.3 58.1898Z" fill="#D5D5D5"/>
</svg>
