<svg width="147" height="595" viewBox="0 0 147 595" fill="none" xmlns="http://www.w3.org/2000/svg">
<path d="M140.6 126C140.333 121.333 139.6 117.867 138.4 115.6C137.333 113.333 135.467 111.8 132.8 111C130.267 110.2 126.467 109.8 121.4 109.8L2 109.8V105.2L131.8 21.2L26.2 21.2C21 21.2 17.1333 21.6 14.6 22.4C12.0667 23.3333 10.2 25.0667 9 27.6C7.93333 30.1333 7.26667 34.0667 7 39.4H3C3.4 34.6 3.6 27.8 3.6 19C3.6 11 3.4 4.8 3 0.400001L7 0.400001C7.26667 5.06667 7.93333 8.53333 9 10.8C10.2 13.0667 12.0667 14.6 14.6 15.4C17.2667 16.2 21.1333 16.6 26.2 16.6L123.4 16.6C128.467 16.6 132.133 16.2 134.4 15.4C136.667 14.6 138.2 13.0667 139 10.8C139.8 8.66667 140.333 5.2 140.6 0.400001L144.6 0.400001C144.2 4.8 144 11 144 19C144 25 144.2 30.2 144.6 34.6L35.8 105.2L121.4 105.2C126.6 105.2 130.467 104.733 133 103.8C135.533 103 137.333 101.333 138.4 98.8C139.6 96.2667 140.333 92.3333 140.6 87H144.6C144.2 91.8 144 98.6 144 107.4C144 115.4 144.2 121.6 144.6 126H140.6ZM28.6 264.011C21 264.011 12.4667 264.478 3 265.411C3.4 256.344 3.6 241.078 3.6 219.611C3.6 194.011 3.4 174.678 3 161.611H7C7.26667 166.411 7.8 169.878 8.6 172.011C9.4 174.278 10.9333 175.811 13.2 176.611C15.4667 177.411 19.1333 177.811 24.2 177.811L123.4 177.811C128.467 177.811 132.133 177.411 134.4 176.611C136.667 175.811 138.2 174.278 139 172.011C139.8 169.878 140.333 166.411 140.6 161.611H144.6C144.2 174.678 144 194.011 144 219.611C144 239.211 144.2 253.144 144.6 261.411C135.8 260.478 127.933 260.011 121 260.011C115.8 260.011 111.667 260.211 108.6 260.611V256.011C117.267 255.078 123.667 253.878 127.8 252.411C132.067 250.944 135.133 248.478 137 245.011C139 241.544 140 236.278 140 229.211V212.611C140 207.811 139.6 204.278 138.8 202.011C138.133 199.878 136.667 198.411 134.4 197.611C132.133 196.811 128.467 196.411 123.4 196.411H76.2V209.611C76.2 214.278 77.2667 217.878 79.4 220.411C81.6667 222.944 84.2667 224.611 87.2 225.411C90.2667 226.344 94.0667 227.078 98.6 227.611L102.6 228.211V232.811C97 232.411 90.7333 232.211 83.8 232.211H74.2C67.4 232.211 57.9333 232.611 45.8 233.411V228.811C46.7333 228.678 49.9333 228.278 55.4 227.611C61 226.944 65.2 225.078 68 222.011C70.8 219.078 72.2 214.944 72.2 209.611V196.411L24.2 196.411C19.1333 196.411 15.4667 196.811 13.2 197.611C10.9333 198.411 9.4 199.878 8.6 202.011C7.93333 204.278 7.6 207.811 7.6 212.611V227.211C7.6 235.478 8.66667 241.744 10.8 246.011C13.0667 250.411 16.6 253.611 21.4 255.611C26.3333 257.611 33.5333 259.078 43 260.011V264.611C39.4 264.211 34.6 264.011 28.6 264.011ZM144 461.486C144 467.486 144.2 472.486 144.6 476.486H140.6C138.867 469.019 133.067 463.753 123.2 460.686L2 422.886V421.286V419.686L105 384.886L2 353.086V351.486V349.886L127.8 307.486C136.067 304.686 140.333 300.086 140.6 293.686H144.6C144.2 299.153 144 306.286 144 315.086C144 324.686 144.2 331.886 144.6 336.686H140.6C140.333 333.086 139.667 330.553 138.6 329.086C137.533 327.619 135.867 326.886 133.6 326.886C131.467 326.886 128.2 327.619 123.8 329.086L34.6 358.286L112 382.686L127.8 377.286C136.067 374.619 140.333 370.686 140.6 365.486H144.6C144.2 370.286 144 376.753 144 384.886C144 396.353 144.2 404.886 144.6 410.486H140.6C140.333 405.419 139.733 401.886 138.8 399.886C138 397.886 136.2 396.886 133.4 396.886C131 396.886 127.8 397.553 123.8 398.886L34.8 427.686L112.2 452.286C118.733 454.419 124.133 455.486 128.4 455.486C132.8 455.486 135.867 454.153 137.6 451.486C139.467 448.819 140.467 444.486 140.6 438.486H144.6C144.2 446.086 144 453.753 144 461.486ZM146.8 547.341C146.8 553.207 146.133 557.807 144.8 561.141C143.6 564.607 141.8 568.141 139.4 571.741C137.533 574.674 136.6 576.941 136.6 578.541C136.6 579.741 137.267 580.674 138.6 581.341C140.067 582.007 142.333 582.541 145.4 582.941V587.541C137.667 586.874 124.067 586.541 104.6 586.541V581.941C115.4 581.141 124.467 578.007 131.8 572.541C139.267 567.207 143 559.407 143 549.141C143 541.941 140.8 536.074 136.4 531.541C132.133 527.007 126.6 524.741 119.8 524.741C114.733 524.741 110.333 525.874 106.6 528.141C102.867 530.541 99.6667 533.541 97 537.141C94.3333 540.741 90.9333 545.874 86.8 552.541L83.2 558.341C78 566.741 73.4 573.341 69.4 578.141C65.5333 583.074 61.0667 587.007 56 589.941C50.9333 592.874 45 594.341 38.2 594.341C26.0667 594.341 16.6667 590.341 10 582.341C3.46667 574.341 0.2 564.207 0.2 551.941C0.2 545.541 0.866667 540.274 2.2 536.141C3.53333 532.141 5.33333 528.274 7.6 524.541C9.46667 521.607 10.4 519.341 10.4 517.741C10.4 516.541 9.66667 515.607 8.2 514.941C6.86667 514.274 4.66667 513.741 1.6 513.341V508.741C8.93333 509.274 24.9333 509.541 49.6 509.541V514.141C36.1333 515.074 25.2 518.407 16.8 524.141C8.4 529.874 4.2 538.674 4.2 550.541C4.2 557.741 6.4 563.874 10.8 568.941C15.3333 574.007 22 576.541 30.8 576.541C38.2667 576.541 44.6 574.007 49.8 568.941C55 564.007 60.8667 556.141 67.4 545.341C72.2 537.474 76.4667 531.074 80.2 526.141C83.9333 521.341 88.4 517.407 93.6 514.341C98.9333 511.274 105.133 509.741 112.2 509.741C123.4 509.741 131.933 513.341 137.8 520.541C143.8 527.741 146.8 536.674 146.8 547.341Z" fill="#D5D5D5"/>
</svg>
