<svg width="538" height="532" viewBox="0 0 538 532" fill="none" xmlns="http://www.w3.org/2000/svg">
<path fill-rule="evenodd" clip-rule="evenodd" d="M424.564 501.276C374.456 533.139 310.954 521.295 251.726 525.552C202.304 529.104 153.574 538.337 106.094 524.164C56.9701 509.499 7.26151 486.436 -21.4917 443.991C-49.6535 402.42 -35.0081 347.405 -46.7246 298.579C-61.1665 238.395 -116.377 183.291 -98.251 124.112C-80.2269 65.2659 -17.3265 26.7317 41.7867 9.60329C96.478 -6.24385 150.174 35.9955 207.114 35.6308C269.843 35.229 331.57 -17.1269 389.317 7.37749C447.568 32.0959 472.461 100.601 497.337 158.785C522.855 218.468 547.584 282.503 534.093 345.995C520.656 409.233 479.118 466.584 424.564 501.276Z" fill="#15A6F8" fill-opacity="0.05"/>
</svg>
