<svg width="629" height="635" viewBox="0 0 629 635" fill="none" xmlns="http://www.w3.org/2000/svg">
<path fill-rule="evenodd" clip-rule="evenodd" d="M341.621 2.9665C405.115 16.7923 431.3 90.4819 474.391 139.121C506.373 175.223 537.484 208.471 560.989 250.586C590.586 303.614 631.8 354.406 628.385 415.038C624.511 483.815 596.885 556.011 541.481 596.946C485.942 637.982 409.234 640.952 341.621 626.915C281.617 614.457 246.999 555.868 194.152 524.836C132.449 488.604 35.586 496.204 7.17747 430.53C-20.8666 365.699 40.443 298.01 67.8771 232.918C92.5961 174.268 110.213 111.371 158.947 70.4332C209.896 27.6345 276.605 -11.1909 341.621 2.9665Z" fill="#EED6D6" fill-opacity="0.23"/>
</svg>
