<svg width="109" height="88" viewBox="0 0 109 88" fill="none" xmlns="http://www.w3.org/2000/svg">
<ellipse cx="30.54" cy="30.1364" rx="5.96503" ry="4.00564" fill="#4039AB"/>
<ellipse cx="102.865" cy="30.1364" rx="5.2194" ry="4.00564" fill="#4039AB"/>
<ellipse cx="78.2604" cy="30.1364" rx="5.96503" ry="4.00564" fill="#4039AB"/>
<ellipse cx="54.3991" cy="30.1364" rx="5.96503" ry="4.00564" fill="#4039AB"/>
<ellipse cx="6.67939" cy="30.1364" rx="5.96503" ry="4.00564" fill="#4039AB"/>
<ellipse cx="30.5395" cy="4.80022" rx="5.96503" ry="4.00564" fill="#4039AB"/>
<ellipse cx="102.865" cy="4.80022" rx="5.2194" ry="4.00564" fill="#4039AB"/>
<ellipse cx="78.2599" cy="4.80022" rx="5.96503" ry="4.00564" fill="#4039AB"/>
<ellipse cx="54.3991" cy="4.80022" rx="5.96503" ry="4.00564" fill="#4039AB"/>
<ellipse cx="6.67963" cy="4.80025" rx="5.96503" ry="4.00564" fill="#4039AB"/>
<ellipse cx="30.54" cy="80.8092" rx="5.96503" ry="4.00564" fill="#4039AB"/>
<ellipse cx="102.865" cy="80.8092" rx="5.2194" ry="4.00564" fill="#4039AB"/>
<ellipse cx="78.2604" cy="80.8092" rx="5.96503" ry="4.00564" fill="#4039AB"/>
<ellipse cx="54.3991" cy="80.8092" rx="5.96503" ry="4.00564" fill="#4039AB"/>
<ellipse cx="6.67939" cy="80.8092" rx="5.96503" ry="4.00564" fill="#4039AB"/>
<ellipse cx="30.54" cy="55.473" rx="5.96503" ry="4.00564" fill="#4039AB"/>
<ellipse cx="102.865" cy="55.473" rx="5.2194" ry="4.00564" fill="#4039AB"/>
<ellipse cx="78.2604" cy="55.473" rx="5.96503" ry="4.00564" fill="#4039AB"/>
<ellipse cx="54.3991" cy="55.473" rx="5.96503" ry="4.00564" fill="#4039AB"/>
<ellipse cx="6.67939" cy="55.473" rx="5.96503" ry="4.00564" fill="#4039AB"/>
</svg>
