<svg width="192" height="209" viewBox="0 0 192 209" fill="none" xmlns="http://www.w3.org/2000/svg">
<path fill-rule="evenodd" clip-rule="evenodd" d="M163.857 33.5224C177.114 56.689 148.169 74.8908 153.511 99.1553C158.367 121.216 194.69 139.277 191.639 159.727C188.762 179.015 158.409 174.948 141.052 182.683C122.255 191.059 109.117 213.508 85.8326 206.877C62.5571 200.249 46.288 174.065 34.5905 152.366C25.3149 135.16 34.119 118.417 28.5261 100.572C22.4793 81.2792 -5.66198 61.5482 1.12332 45.5867C7.86609 29.7254 39.186 45.6703 55.0126 38.2665C73.0349 29.8357 75.5235 1.60813 97.1493 0.66553C119.727 -0.31856 151.393 11.7432 163.857 33.5224Z" fill="url(#paint0_linear)"/>
<defs>
<linearGradient id="paint0_linear" x1="169.687" y1="36.9472" x2="38.4778" y2="168.513" gradientUnits="userSpaceOnUse">
<stop stop-color="#2300FB" stop-opacity="0.31"/>
<stop offset="1" stop-color="#8E16D7" stop-opacity="0"/>
</linearGradient>
</defs>
</svg>
